<?xml version="1.0" encoding="UTF-8" standalone="no"?>
<svg width="531px" height="281px" viewBox="0 0 531 281" version="1.1" xmlns="http://www.w3.org/2000/svg" xmlns:xlink="http://www.w3.org/1999/xlink" xmlns:sketch="http://www.bohemiancoding.com/sketch/ns">
    <!-- Generator: Sketch 3.0.3 (7891) - http://www.bohemiancoding.com/sketch -->
    <title>Group 3</title>
    <desc>Created with Sketch.</desc>
    <defs>
        <linearGradient x1="50%" y1="0%" x2="50%" y2="100%" id="linearGradient-1">
            <stop stop-color="#FFFFFF" offset="0%"></stop>
            <stop stop-color="#FFFFFF" stop-opacity="0" offset="100%"></stop>
        </linearGradient>
    </defs>
    <g id="diagram" sketch:type="MSLayerGroup">
        <g id="elb" transform="translate(0.000000, 116.000000)" sketch:type="MSShapeGroup">
            <path d="M3.9065401,12.17134 C1.74901758,12.6289963 0,14.8003523 0,17.0095579 L0,30.9904421 C0,33.2048598 1.74833984,35.37086 3.9065401,35.82866 L62.0934599,48.17134 C64.2509824,48.6289963 66,47.2057317 66,44.9928103 L66,3.00718972 C66,0.794079948 64.2516602,-0.629140035 62.0934599,-0.171339978 L3.9065401,12.17134 Z" id="Rectangle-30" stroke="#E7E7E7" fill-opacity="0.1" fill="url(#linearGradient-1)"></path>
            <circle id="Oval-9" fill="#4990E2" cx="65" cy="24" r="4"></circle>
        </g>
        <g id="line" transform="translate(65.000000, 24.000000)" stroke="#4A90E2" sketch:type="MSShapeGroup">
            <path d="M0.259765625,115.839083 L132.232935,115.839083 L132.232935,1.31274808 L151.241034,1.31274808" id="Path-20"></path>
            <path d="M0.259765625,230.839083 L132.232935,230.839083 L132.232935,116.312748 L151.241034,116.312748" id="Path-21" transform="translate(75.500000, 173.500000) scale(1, -1) translate(-75.500000, -173.500000) "></path>
            <path d="M201.230469,1.13671875 L411.154851,1.13671875" id="Path-22"></path>
            <path d="M201.564453,231.153067 C201.564453,231.153067 286.472656,236.219251 309,110.833981 C331.527344,-14.5512878 411.761719,1.65219907 411.761719,1.65219907" id="Path-23"></path>
        </g>
        <g id="host-3" transform="translate(472.000000, 0.000000)" sketch:type="MSShapeGroup">
            <rect id="Rectangle-35" stroke="#E7E7E7" fill-opacity="0.1" fill="url(#linearGradient-1)" x="4" y="0" width="51" height="51" rx="4"></rect>
            <g id="Rectangle-16-+-Rectangle-17-+-Rectangle-24" transform="translate(21.000000, 16.000000)" stroke="#FFFFFF" fill="#FFA002">
                <path d="M-0.0622558594,5.35130092 L-0.0622558594,14.8916111 L9.15527344,20.1808384 L9.15527344,10.6075498 L-0.0622558594,5.35130092 Z" id="Path-25"></path>
                <path d="M8.93774414,5.35130092 L8.93774414,14.8916111 L18.1552734,20.1808384 L18.1552734,10.6075498 L8.93774414,5.35130092 Z" id="Path-25" transform="translate(13.500000, 12.500000) scale(-1, 1) translate(-13.500000, -12.500000) "></path>
                <path d="M9.01616765,10.5536903 L-0.0944213865,5.34083819 L9.01616753,0.127986028 L18.0742798,5.34083819 L9.01616765,10.5536903 Z" id="Path-28"></path>
            </g>
            <circle id="Oval-13" fill="#4990E2" cx="4" cy="25" r="4"></circle>
            <circle id="Oval-12" fill="#4990E2" cx="55" cy="25" r="4"></circle>
        </g>
        <g id="host-2" transform="translate(211.000000, 230.000000)" sketch:type="MSShapeGroup">
            <rect id="Rectangle-32" stroke="#E7E7E7" fill-opacity="0.1" fill="url(#linearGradient-1)" x="4" y="0" width="51" height="51" rx="4"></rect>
            <circle id="Oval-8" fill="#4990E2" cx="4" cy="25" r="4"></circle>
            <circle id="Oval-11" fill="#4990E2" cx="55" cy="25" r="4"></circle>
            <g id="Rectangle-16-+-Rectangle-17-+-Rectangle-23" transform="translate(21.000000, 16.000000)" stroke="#FFFFFF" fill="#FFA002">
                <path d="M-0.0622558594,5.35130092 L-0.0622558594,14.8916111 L9.15527344,20.1808384 L9.15527344,10.6075498 L-0.0622558594,5.35130092 Z" id="Path-25"></path>
                <path d="M8.93774414,5.35130092 L8.93774414,14.8916111 L18.1552734,20.1808384 L18.1552734,10.6075498 L8.93774414,5.35130092 Z" id="Path-25" transform="translate(13.500000, 12.500000) scale(-1, 1) translate(-13.500000, -12.500000) "></path>
                <path d="M9.01616765,10.5536903 L-0.0944213865,5.34083819 L9.01616753,0.127986028 L18.0742798,5.34083819 L9.01616765,10.5536903 Z" id="Path-28"></path>
            </g>
        </g>
        <g id="host-1" transform="translate(211.000000, 0.000000)" sketch:type="MSShapeGroup">
            <rect id="Rectangle-31" stroke="#E7E7E7" fill-opacity="0.1" fill="url(#linearGradient-1)" x="4" y="0" width="51" height="51" rx="4"></rect>
            <circle id="Oval-7" fill="#4990E2" cx="4" cy="25" r="4"></circle>
            <circle id="Oval-10" fill="#4990E2" cx="55" cy="25" r="4"></circle>
            <g id="Rectangle-16-+-Rectangle-17-+-Rectangle-22" transform="translate(21.000000, 16.000000)" stroke="#FFFFFF" fill="#FFA002">
                <path d="M-0.0622558594,5.35130092 L-0.0622558594,14.8916111 L9.15527344,20.1808384 L9.15527344,10.6075498 L-0.0622558594,5.35130092 Z" id="Path-25"></path>
                <path d="M8.93774414,5.35130092 L8.93774414,14.8916111 L18.1552734,20.1808384 L18.1552734,10.6075498 L8.93774414,5.35130092 Z" id="Path-25" transform="translate(13.500000, 12.500000) scale(-1, 1) translate(-13.500000, -12.500000) "></path>
                <path d="M9.01616765,10.5536903 L-0.0944213865,5.34083819 L9.01616753,0.127986028 L18.0742798,5.34083819 L9.01616765,10.5536903 Z" id="Path-28"></path>
            </g>
        </g>
    </g>
</svg>