<?xml version="1.0" encoding="UTF-8" standalone="no"?>
<svg width="390px" height="260px" viewBox="0 0 390 260" version="1.1" xmlns="http://www.w3.org/2000/svg" xmlns:xlink="http://www.w3.org/1999/xlink" xmlns:sketch="http://www.bohemiancoding.com/sketch/ns">
    <!-- Generator: Sketch 3.0.3 (7891) - http://www.bohemiancoding.com/sketch -->
    <title>slide-3</title>
    <desc>Created with Sketch.</desc>
    <defs>
        <linearGradient x1="50%" y1="0%" x2="50%" y2="100%" id="linearGradient-1">
            <stop stop-color="#FFFFFF" offset="0%"></stop>
            <stop stop-color="#FFFFFF" stop-opacity="0" offset="100%"></stop>
        </linearGradient>
    </defs>
    <g id="diagram" transform="translate(11.000000, 47.000000)" sketch:type="MSShapeGroup">
        <g id="elb" transform="translate(0.000000, 80.498221)">
            <path d="M3.91954947,8.18883122 C1.75484207,8.64861993 0,10.8025392 0,13.0126101 L0,20.2969984 C0,22.5013092 1.75110153,24.6601941 3.91954947,25.1207773 L41.8205635,33.1710376 C43.9852709,33.6308263 45.740113,32.2111343 45.740113,30.0063795 L45.740113,3.30322901 C45.740113,1.0956479 43.9890115,-0.32201229 41.8205635,0.138570912 L3.91954947,8.18883122 Z" id="Rectangle-30" stroke="#E7E7E7" fill-opacity="0.1" fill="url(#linearGradient-1)"></path>
            <ellipse id="Oval-9" fill="#4990E2" cx="45.047081" cy="16.6548043" rx="2.77212806" ry="2.77580071"></ellipse>
        </g>
        <g id="line" transform="translate(45.047081, 16.654804)" stroke="#4A90E2">
            <path d="M0.180025895,80.386552 L91.6416577,80.386552 L91.6416577,0.910981762 L104.814878,0.910981762" id="Path-20"></path>
            <path d="M0.180025895,160.190822 L91.6416577,160.190822 L91.6416577,80.7152522 L104.814878,80.7152522" id="Path-21" transform="translate(52.323917, 120.400356) scale(1, -1) translate(-52.323917, -120.400356) "></path>
            <path d="M139.459157,0.788826179 L284.943475,0.788826179" id="Path-22"></path>
            <path d="M139.690619,160.408712 C139.690619,160.408712 198.534722,163.924391 214.146893,76.9132612 C229.759063,-10.0978687 285.364054,1.14654384 285.364054,1.14654384" id="Path-23"></path>
        </g>
        <g id="host-3" transform="translate(327.111111, 0.000000)">
            <rect id="Rectangle-35" stroke="#E7E7E7" fill-opacity="0.1" fill="url(#linearGradient-1)" x="2.77212806" y="0" width="35.3446328" height="35.3914591" rx="4"></rect>
            <ellipse id="Oval-13" fill="#4990E2" cx="2.77212806" cy="17.3487544" rx="2.77212806" ry="2.77580071"></ellipse>
            <ellipse id="Oval-12" fill="#4990E2" cx="38.1167608" cy="17.3487544" rx="2.77212806" ry="2.77580071"></ellipse>
        </g>
        <g id="host-2" transform="translate(146.229755, 159.608541)">
            <rect id="Rectangle-32" stroke="#E7E7E7" fill-opacity="0.1" fill="url(#linearGradient-1)" x="2.77212806" y="0" width="35.3446328" height="35.3914591" rx="4"></rect>
            <ellipse id="Oval-8" fill="#4990E2" cx="2.77212806" cy="17.3487544" rx="2.77212806" ry="2.77580071"></ellipse>
            <ellipse id="Oval-11" fill="#4990E2" cx="38.1167608" cy="17.3487544" rx="2.77212806" ry="2.77580071"></ellipse>
        </g>
        <g id="host-1" transform="translate(146.229755, 0.000000)">
            <rect id="Rectangle-31" stroke="#E7E7E7" fill-opacity="0.1" fill="url(#linearGradient-1)" x="2.77212806" y="0" width="35.3446328" height="35.3914591" rx="4"></rect>
            <ellipse id="Oval-7" fill="#4990E2" cx="2.77212806" cy="17.3487544" rx="2.77212806" ry="2.77580071"></ellipse>
            <ellipse id="Oval-10" fill="#4990E2" cx="38.1167608" cy="17.3487544" rx="2.77212806" ry="2.77580071"></ellipse>
        </g>
    </g>
    <g id="frame">
        <rect id="Rectangle-30" stroke="#FFFFFF" fill-opacity="0.1" fill="#FFFFFF" sketch:type="MSShapeGroup" x="0" y="0" width="390" height="260" rx="4"></rect>
        <rect id="Rectangle-36" fill-opacity="0.8" fill="#FFFFFF" sketch:type="MSShapeGroup" x="0" y="0" width="390" height="33" rx="4"></rect>
        <text id="App" sketch:type="MSTextLayer" font-family="Monaco" font-size="14" font-weight="normal" fill="#3A3774">
            <tspan x="10" y="22">App</tspan>
        </text>
        <circle id="Oval-29" fill="#2CBE29" sketch:type="MSShapeGroup" cx="374" cy="17" r="6"></circle>
    </g>
</svg>