<?xml version="1.0" encoding="UTF-8" standalone="no"?>
<svg width="689px" height="284px" viewBox="0 0 689 284" version="1.1" xmlns="http://www.w3.org/2000/svg" xmlns:xlink="http://www.w3.org/1999/xlink" xmlns:sketch="http://www.bohemiancoding.com/sketch/ns">
    <!-- Generator: Sketch 3.0.3 (7891) - http://www.bohemiancoding.com/sketch -->
    <title>slide-2</title>
    <desc>Created with Sketch.</desc>
    <defs>
        <linearGradient x1="50%" y1="0%" x2="50%" y2="100%" id="linearGradient-1">
            <stop stop-color="#FFFFFF" offset="0%"></stop>
            <stop stop-color="#FFFFFF" stop-opacity="0" offset="100%"></stop>
        </linearGradient>
    </defs>
    <g id="host-1-2" transform="translate(-0.389831, 94.500000)" sketch:type="MSShapeGroup">
        <rect id="Rectangle-31" stroke="#E7E7E7" fill-opacity="0.1" fill="url(#linearGradient-1)" x="8.04420073" y="0" width="102.563559" height="102.541815" rx="4"></rect>
        <ellipse id="Oval-7" fill="#4990E2" cx="8.04420073" cy="50.2655956" rx="8.04420073" ry="8.04249529"></ellipse>
        <ellipse id="Oval-10" fill="#4990E2" cx="110.60776" cy="50.2655956" rx="8.04420073" ry="8.04249529"></ellipse>
        <g id="Rectangle-16-+-Rectangle-17-+-Rectangle-22" transform="translate(42.232054, 32.169981)" stroke="#FFFFFF" fill="#FFA002">
            <path d="M-0.125199657,10.7594531 L-0.125199657,29.941428 L18.4117143,40.5760745 L18.4117143,21.3277923 L-0.125199657,10.7594531 Z" id="Path-25"></path>
            <path d="M17.974252,10.7594531 L17.974252,29.941428 L36.511166,40.5760745 L36.511166,21.3277923 L17.974252,10.7594531 Z" id="Path-25" transform="translate(27.149177, 25.132798) scale(-1, 1) translate(-27.149177, -25.132798) "></path>
            <path d="M18.1319656,21.2195012 L-0.189886147,10.7384165 L18.1319654,0.257331756 L36.3482837,10.7384165 L18.1319656,21.2195012 Z" id="Path-28"></path>
        </g>
    </g>
    <g id="state" transform="translate(117.000000, 0.000000)">
        <rect id="Rectangle-24" stroke="#2CBE29" fill="#222324" sketch:type="MSShapeGroup" x="105" y="0" width="465.148438" height="284" rx="4"></rect>
        <path d="M0.5,144.5 L105.5,144.5" id="Path-54" stroke="#2CBE29" sketch:type="MSShapeGroup"></path>
        <text id="State" sketch:type="MSTextLayer" font-family="Monaco" font-size="14" font-weight="normal" fill="#FFFFFF">
            <tspan x="114" y="23">State</tspan>
        </text>
        <rect id="Rectangle-24" fill="#18191B" sketch:type="MSShapeGroup" x="106.274379" y="33" width="462.599679" height="250"></rect>
        <rect id="Rectangle-25" fill="#000000" sketch:type="MSShapeGroup" x="106" y="33" width="30" height="250"></rect>
        <text id="1" sketch:type="MSTextLayer" font-family="Monaco" font-size="12" font-weight="normal" line-spacing="24" fill="#555555">
            <tspan x="118" y="52">1</tspan>
            <tspan x="118" y="77">2</tspan>
            <tspan x="118" y="102">3</tspan>
            <tspan x="118" y="127">4</tspan>
            <tspan x="118" y="152">5</tspan>
        </text>
        <text id="yum-pkg" sketch:type="MSTextLayer" font-family="Monaco" font-size="12" font-weight="normal" line-spacing="24" fill="#BBBBBB">
            <tspan x="143" y="52">yum pkg</tspan>
            <tspan x="143" y="77">archive</tspan>
            <tspan x="143" y="102"></tspan>
            <tspan x="143" y="127">file</tspan>
            <tspan x="143" y="152">file</tspan>
            <tspan x="143" y="177">service</tspan>
        </text>
        <text id="httpd,-php,-php-fpm," sketch:type="MSTextLayer" font-family="Monaco" font-size="12" font-weight="normal" line-spacing="24" fill="#FF6A38">
            <tspan x="215" y="52">httpd, php, php-fpm, php-mysql</tspan>
            <tspan x="215" y="77">/var/www/html/ http://wordpress.org/latest.zip</tspan>
            <tspan x="215" y="102">/var/www/html/wordpress/</tspan>
            <tspan x="215" y="127">/var/www/html/wordpress/wo-config.php</tspan>
            <tspan x="215" y="152">/etc/httpd/conf/httpd.conf</tspan>
            <tspan x="215" y="177">httpd /etc/httpd/conf/httpd.conf</tspan>
        </text>
    </g>
</svg>